<svg xmlns="http://www.w3.org/2000/svg" viewBox="0 0 594.9 95.2"><defs><style>.cls-1{fill:#737880;}.cls-2{fill:#1361a0;}</style></defs><title>Recurso 1</title><g id="Capa_2" data-name="Capa 2"><g id="Capa_1-2" data-name="Capa 1"><path class="cls-1" d="M219.7,95.2h1V0h-1ZM340.4,3.6c.4,1.9.4,6.4.4,15.4,0,6,0,15.7-14.5,15.7-14.8,0-14.8-8.4-14.8-14.9a141.36,141.36,0,0,1,.8-16.3,26.42,26.42,0,0,1-2.9.2c-1.1,0-2.4-.1-3.4-.2.1,2.7.4,7.1.4,12.3,0,2.4-.3,4.6-.3,7.5,0,9.2,5.8,13.6,19,13.6,11.9,0,18.8-5.3,18.9-13.7.1-6.9.7-15.3,1.2-19.7a12.31,12.31,0,0,1-2,.2A12.89,12.89,0,0,1,340.4,3.6ZM457.8,2.3c-6,0-12.1-.1-18.1-.3a4,4,0,0,1,.3,1.5,4.53,4.53,0,0,1-.3,1.6c3.9-.3,10.2-.5,15-.5.1,3.4.2,6.7.2,10.1v8.4c0,4.2-.3,8.5-.6,12.7,1.2-.1,2.3-.2,3.4-.2s2.2.1,3.5.2c-.3-4.2-.6-8.5-.6-12.7V14.7c0-3.4.1-6.7.2-10.1,4.8,0,11.1.2,15,.5a4.19,4.19,0,0,1-.4-1.5,3.43,3.43,0,0,1,.4-1.6C469.9,2.2,463.8,2.3,457.8,2.3Zm47.9,16.4c4.2-1.3,9.9-3.9,9.9-8.7,0-6-5.9-7.9-12.9-7.9h-2.1L484.3,2V3.5h3c.2,3.8.4,7.7.4,11.5v8.6c0,4.3-.3,8.7-.5,13,1-.1,2-.3,3-.3a15.26,15.26,0,0,1,3,.3c-.3-4.3-.5-8.7-.5-13V19.9h2.4l3.4-.2c.7.2,1.9.8,3.6,2.8,5,7.1,19.2,20.9,53.6,20.9V41.8C555.9,41.8,521.7,42.6,505.7,18.7Zm-8.7-.6a16.72,16.72,0,0,1-4.1-.3V14.9c0-3.6.2-7.2.4-10.9,1.3-.1,3.2-.3,6-.3,4.2,0,11,1.3,11,6.6C510.2,16.4,502.1,18.1,497,18.1ZM279.7,36.8c10-2.2,16.7-8.8,16.7-16.9,0-9.9-10.1-17.5-23.8-17.5S248.8,10,248.8,19.9c0,9.7,9.6,17.5,22.9,17.5.4,0,5.7,2.6,11.1,4.9,5.8,2.5,9.1,4.2,14.1,4.2,4,0,5.6-.3,7.5-.4v-.9c-.7,0-1.4.1-2.2.1C296.7,45.3,288.6,42,279.7,36.8ZM255,19.9c0-8.9,5.2-16,17.5-16S290,11,290,19.9s-5.2,16-17.5,16S255,28.8,255,19.9ZM557.6,1.6c-13.4,0-22.8,6.4-22.8,17.5s9.4,17.5,22.8,17.5,22.9-6.4,22.9-17.5S571.1,1.6,557.6,1.6Zm0,33.2c-9.5,0-16.8-4.9-16.8-15.7s7.3-15.7,16.8-15.7,16.9,4.9,16.9,15.7S567.2,34.8,557.6,34.8ZM410.1,9.3c0-3.5,3.6-5.9,8.6-5.9s8.8,3.9,9.7,5.6h.8c.1-2,0-5.1,0-5.1s-5.7-2.2-9.9-2.2c-8.9,0-14.5,3.7-14.5,9,0,11.2,21,7.5,21,16.2,0,3.8-3.6,7-9.5,7-5.7,0-11.4-3.9-12.9-6.2h-.8c.3,1.8.7,3.6,1.1,5.5,2.2,1.7,5.5,2.7,11,2.7C425,35.9,431,31,431,25.1,431.1,14.5,410.1,18.2,410.1,9.3ZM374.2,2.2c-15.9,0-21,8.6-21,16.8,0,9.5,8.6,17.7,20.1,17.7,7.3,0,13.8-2.4,17.9-6.6-.5-.4-1-.8-1.3-1.1a18.72,18.72,0,0,1-13.7,5.9c-11.8,0-15.9-7.5-15.9-16.7V18h33.2C392.6,9.4,388.3,2.2,374.2,2.2ZM360.4,16.3A14.1,14.1,0,0,1,374.6,3.7c10,0,13.1,6.5,13.1,12.6Z"/><path class="cls-2" d="M179.1,29.4C167,11.7,125.5,2.4,77.8,8.1c-24.9,3-47.1,9.6-63.9,18.1,16-7.3,36.4-12.9,59-15.4,43.6-5,81.9,2.7,96.8,17.8-19.8-1.2-49,.8-81.1,6.3C49.8,41.5,16.7,51.5,0,60.7c17.9-8.2,49-16.6,85-22.1,36.8-5.6,69.7-7,89-4.3a18.13,18.13,0,0,1,2.2,6.8c2,17.3-21.4,34.9-56.3,45.2,38.5-10.4,64.8-29.5,62.6-48a18.43,18.43,0,0,0-.5-2.5c6.1,1.6,9.7,3.8,10.1,6.7a4.22,4.22,0,0,1-.3,2.2c3-2.6,4.4-5,4.1-7.2C195.3,33.6,189.2,30.9,179.1,29.4Z"/><path class="cls-1" d="M585.5,6.3V1.7h1.4l.8,3.1.8-3.1h1.4V6.3H589V2.7l-.9,3.6h-.9l-.9-3.6V6.3Z"/><path class="cls-1" d="M590.8,6.3V1.7h1.9a3.42,3.42,0,0,1,1.1.1,1,1,0,0,1,.5.4,1.85,1.85,0,0,1,.2.7,1.14,1.14,0,0,1-.3.8,1.27,1.27,0,0,1-.9.4,1,1,0,0,1,.5.4,6.82,6.82,0,0,1,.5.7l.6.9h-1.1l-.7-1a2.49,2.49,0,0,0-.5-.7c-.1-.1-.2-.2-.3-.2a4.33,4.33,0,0,0-.5-.1h-.2V6h-.8Zm.9-2.7h.7c.4,0,.7,0,.8-.1s.2-.1.3-.2a.37.37,0,0,0,.1-.3c0-.2,0-.3-.1-.4s-.2-.2-.3-.2h-1.4V3.6Z"/><path class="cls-1" d="M516.5,54.4c-6,0-12.1-.1-18.1-.3a4,4,0,0,1,.3,1.5,4.53,4.53,0,0,1-.3,1.6c3.9-.3,10.2-.5,15-.5.1,3.4.2,6.7.2,10.1v8.4c0,4.2-.3,8.5-.6,12.7,1.2-.1,2.3-.2,3.4-.2s2.2.1,3.5.2c-.3-4.2-.6-8.5-.6-12.7V66.8c0-3.4.1-6.7.2-10.1,4.8,0,11.1.2,15,.5a4.19,4.19,0,0,1-.4-1.5,3.43,3.43,0,0,1,.4-1.6Q525.65,54.4,516.5,54.4Z"/><path class="cls-1" d="M283,70.4c4.2-1.3,9.9-3.9,9.9-8.7,0-6-5.9-7.9-12.9-7.9h-2.1l-16.3-.1v1.5h3c.2,3.8.4,7.7.4,11.5v8.6c0,4.3-.3,8.7-.5,13,1-.1,2-.3,3-.3a15.26,15.26,0,0,1,3,.3c-.3-4.3-.5-8.7-.5-13V71.6h2.4l3.4-.2c.7.2,1.9.8,3.6,2.8,5,7.1,19.2,20.9,53.6,20.9V93.5C333.2,93.6,299,94.4,283,70.4Zm-8.8-.5a16.72,16.72,0,0,1-4.1-.3V66.7c0-3.6.2-7.2.4-10.9,1.3-.1,3.2-.3,6-.3,4.2,0,11,1.3,11,6.6C287.5,68.2,279.3,69.9,274.2,69.9Z"/><path class="cls-1" d="M474.4,70.4c4.2-1.3,9.9-3.9,9.9-8.7,0-6-5.9-7.9-12.9-7.9h-2.1L453,53.7v1.5h3c.2,3.8.4,7.7.4,11.5v8.6c0,4.3-.3,8.7-.5,13,1-.1,2-.3,3-.3a15.26,15.26,0,0,1,3,.3c-.3-4.3-.5-8.7-.5-13V71.6h2.4l3.4-.2c.7.2,1.9.8,3.6,2.8,5,7.1,19.2,20.9,53.6,20.9V93.5C524.6,93.6,490.4,94.4,474.4,70.4Zm-8.7-.5a16.72,16.72,0,0,1-4.1-.3V66.7c0-3.6.2-7.2.4-10.9,1.3-.1,3.2-.3,6-.3,4.2,0,11,1.3,11,6.6C478.9,68.2,470.8,69.9,465.7,69.9Z"/><path class="cls-1" d="M423.4,53.5c-13.4,0-22.8,6.4-22.8,17.5s9.4,17.5,22.8,17.5,22.9-6.4,22.9-17.5S436.9,53.5,423.4,53.5Zm0,33.2c-9.5,0-16.8-4.9-16.8-15.7s7.3-15.7,16.8-15.7,16.9,4.9,16.9,15.7S432.9,86.7,423.4,86.7Z"/><path class="cls-1" d="M371.5,61.6c0-3.5,3.6-5.9,8.6-5.9s8.8,3.9,9.7,5.6h.8c.1-2,0-5.1,0-5.1s-5.7-2.2-9.9-2.2c-8.9,0-14.5,3.7-14.5,9,0,11.2,21,7.5,21,16.2,0,3.8-3.6,7-9.5,7-5.7,0-11.4-3.9-12.9-6.2H364c.3,1.8.7,3.6,1.1,5.5,2.2,1.7,5.5,2.7,11,2.7,10.3,0,16.3-4.9,16.3-10.8C392.6,66.8,371.5,70.5,371.5,61.6Z"/><path class="cls-1" d="M547.8,61.6c0-3.5,3.6-5.9,8.6-5.9s8.8,3.9,9.7,5.6h.8c.1-2,0-5.1,0-5.1S561.2,54,557,54c-8.9,0-14.5,3.7-14.5,9,0,11.2,21,7.5,21,16.2,0,3.8-3.6,7-9.5,7-5.7,0-11.4-3.9-12.9-6.2h-.8c.3,1.8.7,3.6,1.1,5.5,2.2,1.7,5.5,2.7,11,2.7,10.3,0,16.3-4.9,16.3-10.8C568.8,66.8,547.8,70.5,547.8,61.6Z"/><path class="cls-1" d="M335.5,53.7c-15.9,0-21,8.6-21,16.8,0,9.5,8.6,17.7,20.1,17.7,7.3,0,13.8-2.4,17.9-6.6-.5-.4-1-.8-1.3-1.1a18.72,18.72,0,0,1-13.7,5.9c-11.8,0-15.9-7.5-15.9-16.7v-.2h33.2C353.9,61,349.5,53.7,335.5,53.7ZM321.7,67.9a14.1,14.1,0,0,1,14.2-12.6c10,0,13.1,6.5,13.1,12.6Z"/></g></g></svg>