<?xml version="1.0" encoding="utf-8"?>
<!-- Generator: Adobe Illustrator 21.1.0, SVG Export Plug-In . SVG Version: 6.00 Build 0)  -->
<svg version="1.1" id="Capa_1" xmlns="http://www.w3.org/2000/svg" xmlns:xlink="http://www.w3.org/1999/xlink" x="0px" y="0px"
	 viewBox="0 0 100 125" style="enable-background:new 0 0 100 125;" xml:space="preserve">
<g>
	<path d="M76.6,89.5V79c0-7.9-6.4-9.9-14.3-9.9c0,0-5.2,4-12.3,4c-6.9,0-12.3-4-12.3-4c-7.9,0-14.3,2-14.3,9.9v10.6
		c0,0,11.9,6,26.6,5.4C67.4,94.3,76.6,89.5,76.6,89.5z"/>
</g>
<path d="M60,43.7c-2.1-0.4-6-1-10-1c-3.9,0-7.7,0.6-9.9,1c-2.3,2.7-3.7,6.3-3.7,10.3c0,8.3,6.1,15,13.7,15s13.7-6.7,13.7-15
	C63.7,50.1,62.3,46.4,60,43.7z"/>
<path d="M60.2,10.8C58.1,7.3,54.3,5,50,5s-8.1,2.3-10.2,5.8c-5.5,0.2-10,4.7-10,10.3c0,4.7,3.2,8.7,7.6,9.9c0.4,0.1,0.9,0.2,1.3,0.3
	v11.4c0.7-0.1,1.7-0.4,3-0.6l0,0c0.5-0.1,1-0.2,1.5-0.2c0.2,0,0.3,0,0.5-0.1c0.4,0,0.8-0.1,1.2-0.1c0.2,0,0.4,0,0.6-0.1
	c0.4,0,0.9-0.1,1.3-0.1c0.2,0,0.4,0,0.6,0c0.7,0,1.3-0.1,2-0.1c0.1,0,0.3,0,0.4,0c0.7,0,1.4,0,2.1,0.1c0.2,0,0.4,0,0.6,0
	c0.5,0,1,0.1,1.4,0.1c0.2,0,0.4,0,0.6,0.1c0.6,0.1,1.1,0.1,1.6,0.2c0.1,0,0.1,0,0.2,0c0.6,0.1,1.2,0.2,1.8,0.3
	c1.2,0.2,2.2,0.4,2.9,0.5V31.2c0.5-0.1,0.9-0.2,1.3-0.3c4.4-1.2,7.6-5.2,7.6-9.9C70.1,15.5,65.7,11,60.2,10.8z"/>
</svg>
