<?xml version="1.0" encoding="utf-8"?>
<!-- Generator: Adobe Illustrator 21.1.0, SVG Export Plug-In . SVG Version: 6.00 Build 0)  -->
<svg version="1.1" id="Capa_1" xmlns="http://www.w3.org/2000/svg" xmlns:xlink="http://www.w3.org/1999/xlink" x="0px" y="0px"
	 viewBox="0 0 90 112.5" style="enable-background:new 0 0 90 112.5;" xml:space="preserve">
<path d="M80.7,40c0,0-8.3-4.9-25.4-4.6c0,0-14.8,1.2-22.5,12c0,0-3.7,4.7-11.7,7.2V62c2,0.2,4.4,1.3,4.4,2.7c0,1.5-2.5,2.7-5.3,2.7
	s-5.5-1.2-5.5-2.7c0-1,1.4-1.9,2.4-2.4v-7c0,0.2-1.5,0.3-2.5,0.5c0,0-13.4,0.4-13.8,10c0,0-0.3,8.5,13.2,11.9c0,0,23.5,3.1,41.7-2.7
	c0,0,28.1-6.9,32-18.2C88.8,53.1,90,44.5,80.7,40z"/>
<polyline points="22,10 22,64 19,64 19,10 "/>
<path d="M22,13v10.8c0,0,6.7,2.1,13.5-2.7c0,0,2.5-3.1,9.1-3.3c0,0-3.4-4.1-14.5-2.2C30.1,15.6,27,17.3,22,13"/>
</svg>
