<?xml version="1.0" encoding="utf-8"?>
<!-- Generator: Adobe Illustrator 21.1.0, SVG Export Plug-In . SVG Version: 6.00 Build 0)  -->
<svg version="1.1" id="Capa_1" xmlns="http://www.w3.org/2000/svg" xmlns:xlink="http://www.w3.org/1999/xlink" x="0px" y="0px"
	 viewBox="0 0 64 80" style="enable-background:new 0 0 64 80;" xml:space="preserve">
<g>
	<path d="M62.5,52.9c-0.3-0.5-0.6-1-1.1-1.3c-0.3-0.2-0.6-0.3-0.9-0.4c-0.7-0.2-1.3-0.1-2,0c-0.7,0.2-1.4,0.3-2,0.5
		c-1.4,0.3-2.9,0.6-4.3,1c-0.6,0.2-0.9,0-1.3-0.6c-1.7-2.9-3.5-5.8-5.2-8.8c-0.2-0.4-0.5-0.8-0.8-1.1c0,0,0,0,0,0
		c-1.1-0.9-2.4-1.9-3.7-2c-1.7-0.1-3.6,0.6-5.3,0.9c-4.2,0.8-8.4,0.9-12.7,0.9c-1.9,0-3.8,0.2-5.6-0.1c-3.6-0.5-7.2-0.9-10.8-1.6
		c-1.9-0.4-3,0.6-3,2.5c0,0.5,0,1,0,1.4c0,0.9,0,1.8,0,2.7c0,0.7,0,1.5,0,2.2c0,0.3,0,0.5,0.1,0.8c0.3,2,1.8,2.9,4.7,2.8
		c4.8-0.1,9.6-0.3,14.4-0.3c3.6,0,7.2,0,10.8,0c1.4,0,2.7,0,4.1,0c0.6,0,1.2,0,1.9,0c0.4,0,0.8,0.1,1.2-0.1c0.4-0.2,0.6-0.6,1-0.8
		c0.5-0.2,1-0.1,1.3,0.4c0.4,0.7,0.7,1.3,1.1,2c0.9,1.4,1.7,2.9,2.6,4.3c0.8,1.3,2.1,1.9,3.6,1.6c3.1-0.7,6.1-1.4,9.2-2
		c1-0.2,1.8-0.6,2.4-1.2c0.3-0.3,0.5-0.7,0.7-1.2c0,0,0,0,0,0C63,54.7,62.9,53.7,62.5,52.9z"/>
	<path d="M34.3,32.3c-0.3-0.1-11.6-7-14.2-11.6c-1.1-1.9-4.2-2.5-6-1.2C12,21.3,10.8,26,10,28.5c-0.8,2.5-1.2,5.1-1.7,7.6
		c-0.1,0.6-0.1,0.5-0.2,1.1c-0.1,0.9,0.7,1.2,1.5,1.3c0.7,0.1,1.4,0.1,2.1,0.2c1.8,0.1,3.5,0.2,5.3,0.3c5.1,0.1,1.5-10,5.4-8
		c0,0,0.1,0,0.1,0.1c2.7,1.5,5.1,2.7,7.3,3.7c1.1,0.5,2.3,0.7,3.6,0.9l0.2,0c0.2,0,0.4,0,0.5,0c0.6,0,1.4-0.2,1.6-1.2
		C35.8,34,35.8,33.1,34.3,32.3z"/>
	<path d="M30.3,12.6c1-1.8,1-3.5-0.2-5.3c-0.5-0.8-1.2-1.4-2-2c-0.8-0.5-1.6-0.9-2.6-1.1c-2.1-0.5-3.7,0.2-5,1.7
		c-0.2,0.2-0.3,0.5-0.5,0.7c-1.2,1.7-1.9,3.6-2.2,5.7c-0.2,1-0.1,2.1,0.1,3.1c0.2,1.1,0.8,1.9,1.7,2.4c0.8,0.6,1.8,0.8,2.9,0.6
		c1-0.2,2-0.5,2.9-1c1.8-1.1,3.3-2.4,4.5-4.1C30,13,30.2,12.8,30.3,12.6z"/>
	<path d="M58.3,36.7c1-1.8,1-3.6-0.2-5.3c-0.5-0.8-1.2-1.4-2-2c-0.8-0.5-1.6-0.9-2.6-1.1c-2.1-0.5-3.7,0.2-5,1.8
		c-0.2,0.2-0.3,0.5-0.5,0.7c-1.2,1.7-1.9,3.7-2.3,5.8c-0.2,1-0.1,2.1,0.1,3.1c0.2,1.1,0.8,1.9,1.6,2.4c0.8,0.6,1.8,0.8,2.9,0.6
		c1-0.2,2-0.5,2.9-1.1c1.8-1.1,3.3-2.5,4.5-4.2C57.9,37.2,58.1,36.9,58.3,36.7z"/>
	<path d="M42.4,55.6c-0.2-0.4-0.5-0.5-1-0.5c-15.9,0-21.9,0-37.8,0c0,0,0,0,0,0H3.3c-1.2,0-2.2,1-2.2,2.2s1,2.2,2.2,2.2h0.3
		c0.1,0,0.2,0,0.3,0c15.1,0,20.3,0,35.4,0c1.8,0,3.6,0,5.5,0C43.9,58.2,43.1,56.9,42.4,55.6z"/>
</g>
</svg>
