<?xml version="1.0" encoding="utf-8"?>
<!-- Generator: Adobe Illustrator 21.1.0, SVG Export Plug-In . SVG Version: 6.00 Build 0)  -->
<svg version="1.1"
	 id="Capa_1" xmlns:cc="http://creativecommons.org/ns#" xmlns:dc="http://purl.org/dc/elements/1.1/" xmlns:inkscape="http://www.inkscape.org/namespaces/inkscape" xmlns:rdf="http://www.w3.org/1999/02/22-rdf-syntax-ns#" xmlns:sodipodi="http://sodipodi.sourceforge.net/DTD/sodipodi-0.dtd" xmlns:svg="http://www.w3.org/2000/svg"
	 xmlns="http://www.w3.org/2000/svg" xmlns:xlink="http://www.w3.org/1999/xlink" x="0px" y="0px" viewBox="0 0 747.7 537.8"
	 style="enable-background:new 0 0 747.7 537.8;" xml:space="preserve">
<g transform="translate(-52.34672,-309.49091)">
	<path d="M433.2,309.6c-2.9,0.3-5.9,1.2-8.6,2.8L347,355.1c-17.3,9.2-23.4,31-13.6,48l30.5,52.7c5.8,10.2,4.4,23.4-3.8,32L297,554.1
		c25.6,5.3,41.9,18.6,53.3,28.4c11,9.1,14.3,11.9,24.7,11.9c10.4,0,13.7-2.8,24.6-11.9c14.6-12.4,36.9-30.7,77-30.7
		c18.4,0,33,3.8,44.7,9.1c4.8-13.1,1.7-28.1-8.8-38.3l-63.2-60c-18.4-17.4-35.3-36.3-50.8-56.2c-6.9-8.9-4.5-21.9,5.1-27.6
		l43.9-26.7c10.5-6.3,14.2-19.8,8.4-30.5C451.1,313.1,442,308.7,433.2,309.6L433.2,309.6z M531.3,367.1c-35.7,0-64.6,28.9-64.6,64.6
		c0,35.7,28.9,64.6,64.6,64.6c0,0,0,0,0,0c35.7,0,64.6-28.9,64.6-64.6c0,0,0,0,0,0C595.9,396,566.9,367.1,531.3,367.1
		C531.3,367.1,531.3,367.1,531.3,367.1z M69.9,575.1c-9.7,0-17.5,7.8-17.5,17.5c0,9.6,7.8,17.5,17.5,17.5c19.1,0,27.7,7.3,39.6,17.3
		c13.5,11.4,30.3,25.5,62.1,25.5c31.8,0,48.7-14.2,62.2-25.5c11.9-10.1,20.5-17.3,39.6-17.3c19.1,0,27.7,7.3,39.6,17.3
		c13.5,11.3,30.2,25.5,62.1,25.5s48.6-14.2,62.1-25.5c11.9-10.1,20.6-17.3,39.6-17.3c19.1,0,27.8,7.3,39.8,17.3
		c13.5,11.4,30.3,25.5,62.2,25.5s48.7-14.2,62.2-25.5c11.9-10.1,20.5-17.3,39.6-17.3c19.1,0,27.7,7.3,39.8,17.3
		c13.5,11.4,30.3,25.5,62.2,25.5c9.6,0,17.5-8,17.5-17.6c0-9.6-7.8-17.5-17.5-17.5c-19.2,0-27.7-7.2-39.8-17.2
		c-13.5-11.4-30.3-25.5-62.2-25.5c-31.9,0-48.7,14.1-62.2,25.5c-11.9,10-20.5,17.2-39.6,17.2c-19.1,0-27.8-7.2-39.8-17.2
		c-13.5-11.4-30.3-25.5-62.2-25.5c-31.8,0-48.5,14.2-62.1,25.5c-11.9,10-20.6,17.2-39.6,17.2s-27.7-7.2-39.6-17.2
		c-13.5-11.4-30.2-25.5-62.1-25.5c-31.8,0-48.7,14.2-62.2,25.5c-11.9,10-20.5,17.2-39.6,17.2c-19.1,0-27.5-7.2-39.5-17.2
		C118.6,589.2,101.7,575.1,69.9,575.1L69.9,575.1z M69.8,662c-9.7,0-17.5,8-17.5,17.6c0,9.6,7.8,17.5,17.5,17.5
		c19.1,0,27.7,7.2,39.6,17.2c13.5,11.4,30.3,25.5,62.1,25.5c31.8,0,48.7-14.1,62.2-25.5c11.9-10,20.5-17.2,39.6-17.2
		c19.1,0,27.7,7.2,39.6,17.2c13.5,11.4,30.2,25.5,62.1,25.5c31.8,0,48.6-14.1,62.1-25.5c11.9-10,20.6-17.2,39.6-17.2
		c19.1,0,27.8,7.2,39.8,17.2c13.5,11.4,30.3,25.5,62.2,25.5c31.8,0,48.7-14.1,62.2-25.5c11.9-10,20.5-17.2,39.6-17.2
		c19.1,0,27.7,7.2,39.8,17.2c13.5,11.4,30.3,25.5,62.2,25.5c9.6,0,17.5-7.8,17.5-17.5c0-9.6-7.8-17.5-17.5-17.5
		c-19.2,0-27.7-7.2-39.8-17.2c-13.5-11.4-30.3-25.6-62.2-25.6c-31.9,0-48.7,14.2-62.2,25.6c-11.9,10-20.5,17.2-39.6,17.2
		c-19.1,0-27.8-7.2-39.8-17.2c-13.5-11.4-30.3-25.6-62.2-25.6c-31.8,0-48.5,14.3-62.1,25.6c-11.9,10-20.6,17.2-39.6,17.2
		c-19.1,0-27.7-7.2-39.6-17.2c-13.5-11.4-30.2-25.6-62.1-25.6c-31.8,0-48.7,14.3-62.2,25.6c-11.9,10-20.5,17.2-39.6,17.2
		c-19.1,0-27.5-7.2-39.5-17.2C118.5,676.2,101.6,662,69.8,662L69.8,662z"/>
</g>
</svg>
