<?xml version="1.0" encoding="utf-8"?>
<!-- Generator: Adobe Illustrator 21.1.0, SVG Export Plug-In . SVG Version: 6.00 Build 0)  -->
<svg version="1.1"
	 id="Capa_1" xmlns:cc="http://creativecommons.org/ns#" xmlns:dc="http://purl.org/dc/elements/1.1/" xmlns:inkscape="http://www.inkscape.org/namespaces/inkscape" xmlns:rdf="http://www.w3.org/1999/02/22-rdf-syntax-ns#" xmlns:sodipodi="http://sodipodi.sourceforge.net/DTD/sodipodi-0.dtd" xmlns:svg="http://www.w3.org/2000/svg"
	 xmlns="http://www.w3.org/2000/svg" xmlns:xlink="http://www.w3.org/1999/xlink" x="0px" y="0px" viewBox="0 0 32 40"
	 style="enable-background:new 0 0 32 40;" xml:space="preserve">
<g transform="translate(0,-1020.3622)">
	<path d="M2,1031.4v1h1v6.5v1v0.5h1v-0.5h24v0.5h1v-8h1v-1H2z M4,1032.4h1.5v1.5H4V1032.4z M6.5,1032.4H8v1.5H6.5V1032.4z M9,1032.4
		h1.5v1.5H9V1032.4z M11.5,1032.4H13v1.5h-1.5V1032.4z M14,1032.4h1.5v1.5H14V1032.4z M16.5,1032.4H18v1.5h-1.5V1032.4z M19,1032.4
		h1.5v1.5H19V1032.4z M21.5,1032.4H23v1.5h-1.5V1032.4z M24,1032.4h1.5v1.5H24V1032.4z M26.5,1032.4H28v1.5h-1.5V1032.4z M4,1034.9
		h1.5v1.5H4V1034.9z M6.5,1034.9H8v1.5H6.5V1034.9z M9,1034.9h1.5v1.5H9V1034.9z M11.5,1034.9H13v1.5h-1.5V1034.9z M14,1034.9h1.5
		v1.5H14V1034.9z M16.5,1034.9H18v1.5h-1.5V1034.9z M19,1034.9h1.5v1.5H19V1034.9z M21.5,1034.9H23v1.5h-1.5V1034.9z M24,1034.9h1.5
		v1.5H24V1034.9z M26.5,1034.9H28v1.5h-1.5V1034.9z M4,1037.4h1.5v1.5H4V1037.4z M6.5,1037.4H8v1.5H6.5V1037.4z M9,1037.4h1.5v1.5H9
		V1037.4z M11.5,1037.4H13v1.5h-1.5V1037.4z M14,1037.4h1.5v1.5H14V1037.4z M16.5,1037.4H18v1.5h-1.5V1037.4z M19,1037.4h1.5v1.5H19
		V1037.4z M21.5,1037.4H23v1.5h-1.5V1037.4z M24,1037.4h1.5v1.5H24V1037.4z M26.5,1037.4H28v1.5h-1.5V1037.4z"/>
	<path d="M5.3,1040.5l-1.8,8.9h25l-1.8-8.9H5.3z"/>
	<path d="M8.6,1023.4l-1.4,7.4h17.7l-1.4-7.4L8.6,1023.4L8.6,1023.4z M12.5,1027.6c0.4,0,0.8,0.3,0.8,0.8c0,0.4-0.3,0.8-0.8,0.8
		c-0.4,0-0.8-0.3-0.8-0.8C11.7,1028,12.1,1027.6,12.5,1027.6z"/>
</g>
</svg>
