<svg xmlns="http://www.w3.org/2000/svg" xmlns:xlink="http://www.w3.org/1999/xlink" version="1.1" x="0px" y="0px" viewBox="0 0 163.469 161.465" style="enable-background:new 0 0 163.469 129.172;" xml:space="preserve"><g><path d="M0,115.587h4.361v9.227c0,2.409,1.948,4.358,4.363,4.358h8.715c2.413,0,4.365-1.95,4.365-4.358v-9.227H91.58v9.227   c0,2.409,1.949,4.358,4.36,4.358h8.719c2.413,0,4.364-1.95,4.364-4.358v-9.227h4.361v-10.611H0V115.587z"/><circle cx="77.668" cy="58.543" r="8.567"/><path d="M152.683,29.941h-2.158h-3.799c0.002,0.132,0.008,0.249,0.008,0.388c0,3.396-1.756,8.179-3.411,11.931l-0.874-6.438   c-0.641,0.241-1.315,0.366-1.989,0.366h-0.003h-0.001c-0.675,0-1.35-0.125-1.992-0.365l-0.873,6.436   c-1.654-3.752-3.41-8.534-3.41-11.93c0-0.139,0.007-0.256,0.009-0.388h-3.799h-2.157c-5.933,0-10.786,4.854-10.786,10.786v2.157   v13.428l-14.619,4.759L94.784,39.6c0,0-29.114-4.844-38.086-4.844c-8.978,0-38.089,4.844-38.089,4.844L4.585,77.011   C1.644,77.83,0,78.375,0,78.375v22.212h113.384V78.375c0,0-1.644-0.545-4.58-1.364l-3.195-8.526l17.02-5.541   c1.628-0.53,2.73-2.048,2.73-3.761V42.884h2.157V62.51v12.013v50.843c0,2.093,1.713,3.806,3.806,3.806h3.893   c2.093,0,3.806-1.713,3.806-3.806V77.399h2.876v47.967c0,2.093,1.713,3.806,3.806,3.806h3.893c2.094,0,3.806-1.713,3.806-3.806   V74.523V62.51V42.884h2.157v30.201c0,2.184,1.771,3.955,3.955,3.955c2.184,0,3.955-1.771,3.955-3.955V42.884v-1.438v-0.719   C163.469,34.794,158.616,29.941,152.683,29.941z M16.705,95.731c-4.062,0-7.35-3.29-7.35-7.349c0-4.06,3.288-7.35,7.35-7.35   c4.056,0,7.348,3.29,7.348,7.35C24.053,92.441,20.761,95.731,16.705,95.731z M15.005,74.001l9.996-26.614   c6.675-1.074,24.961-3.903,31.696-3.903c6.73,0,25.019,2.829,31.689,3.895l9.978,26.621c0,0-26.443-4.345-41.673-4.345   C41.457,69.656,15.005,74.001,15.005,74.001z M96.679,95.731c-4.055,0-7.346-3.29-7.346-7.349c0-4.06,3.291-7.35,7.346-7.35   c4.063,0,7.349,3.29,7.349,7.35C104.028,92.441,100.742,95.731,96.679,95.731z M151.35,46.976h-7.115V44h7.115V46.976z"/><path d="M150.601,12.976V4.081c0,0-2.206-4.081-10.163-4.081c-7.958,0-10.163,4.081-10.163,4.081v8.895   c2.112-1.949,6.36-2.709,10.163-2.709C144.241,10.266,148.489,11.027,150.601,12.976z"/><path d="M138.579,29.798l-0.94,3.711l0.112,0.176c0.781,0.668,1.737,1.019,2.707,1.02c0.971-0.001,1.928-0.352,2.709-1.021   l0.111-0.175l-0.94-3.711h-1.879H138.579z"/><path d="M150.511,16.854c0-5.563-20.146-5.563-20.146,0c0,5.563,4.51,10.073,10.073,10.073   C146.001,26.927,150.511,22.417,150.511,16.854z"/></g></svg>
